<svg width="149" height="70" viewBox="0 0 149 70" fill="none" xmlns="http://www.w3.org/2000/svg">
<path d="M62.65 44.05C62.65 41.25 63.2 38.7667 64.3 36.6C65.4333 34.4333 66.95 32.7667 68.85 31.6C70.7833 30.4333 72.9333 29.85 75.3 29.85C77.3667 29.85 79.1667 30.2667 80.7 31.1C82.2667 31.9333 83.5167 32.9833 84.45 34.25V30.3H91.5V58H84.45V53.95C83.55 55.25 82.3 56.3333 80.7 57.2C79.1333 58.0333 77.3167 58.45 75.25 58.45C72.9167 58.45 70.7833 57.85 68.85 56.65C66.95 55.45 65.4333 53.7667 64.3 51.6C63.2 49.4 62.65 46.8833 62.65 44.05ZM84.45 44.15C84.45 42.45 84.1167 41 83.45 39.8C82.7833 38.5667 81.8833 37.6333 80.75 37C79.6167 36.3333 78.4 36 77.1 36C75.8 36 74.6 36.3167 73.5 36.95C72.4 37.5833 71.5 38.5167 70.8 39.75C70.1333 40.95 69.8 42.3833 69.8 44.05C69.8 45.7167 70.1333 47.1833 70.8 48.45C71.5 49.6833 72.4 50.6333 73.5 51.3C74.6333 51.9667 75.8333 52.3 77.1 52.3C78.4 52.3 79.6167 51.9833 80.75 51.35C81.8833 50.6833 82.7833 49.75 83.45 48.55C84.1167 47.3167 84.45 45.85 84.45 44.15ZM105.337 34.6C106.237 33.1333 107.403 31.9833 108.837 31.15C110.303 30.3167 111.97 29.9 113.837 29.9V37.25H111.987C109.787 37.25 108.12 37.7667 106.987 38.8C105.887 39.8333 105.337 41.6333 105.337 44.2V58H98.3367V30.3H105.337V34.6ZM116.752 44.05C116.752 41.25 117.302 38.7667 118.402 36.6C119.535 34.4333 121.052 32.7667 122.952 31.6C124.885 30.4333 127.035 29.85 129.402 29.85C131.468 29.85 133.268 30.2667 134.802 31.1C136.368 31.9333 137.618 32.9833 138.552 34.25V30.3H145.602V58H138.552V53.95C137.652 55.25 136.402 56.3333 134.802 57.2C133.235 58.0333 131.418 58.45 129.352 58.45C127.018 58.45 124.885 57.85 122.952 56.65C121.052 55.45 119.535 53.7667 118.402 51.6C117.302 49.4 116.752 46.8833 116.752 44.05ZM138.552 44.15C138.552 42.45 138.218 41 137.552 39.8C136.885 38.5667 135.985 37.6333 134.852 37C133.718 36.3333 132.502 36 131.202 36C129.902 36 128.702 36.3167 127.602 36.95C126.502 37.5833 125.602 38.5167 124.902 39.75C124.235 40.95 123.902 42.3833 123.902 44.05C123.902 45.7167 124.235 47.1833 124.902 48.45C125.602 49.6833 126.502 50.6333 127.602 51.3C128.735 51.9667 129.935 52.3 131.202 52.3C132.502 52.3 133.718 51.9833 134.852 51.35C135.985 50.6833 136.885 49.75 137.552 48.55C138.218 47.3167 138.552 45.85 138.552 44.15Z" fill="white"/>
<path d="M6.29395 51.1714C6.29413 47.6121 7.06181 44.0948 8.54464 40.8592C10.0275 37.6235 12.1906 34.7457 14.8865 32.4219L39.7465 11.0005H52.6101L6.29395 51.1714Z" fill="#4EAF4E"/>
<path d="M55.6101 19.0288C55.6104 22.5881 54.843 26.1056 53.3601 29.3413C51.8773 32.5771 49.7139 35.4548 47.0176 37.7783L22.1576 59.1997H9.29395L55.6101 19.0288Z" fill="#4EAF4E"/>
<path d="M51.8845 50.1037L51.8845 50.1048C51.8874 51.3885 51.4297 52.6307 50.5945 53.6057C49.7673 54.5712 48.6244 55.2112 47.3698 55.412H19.4817L52.6385 26.6553L52.6387 26.6552C53.7286 25.7092 54.6027 24.54 55.2016 23.2269C55.8005 21.9138 56.1103 20.4874 56.1101 19.0441L56.11 17.9491L55.2826 18.6664L8.96641 58.8218L7.95395 59.6996H9.29395H46.7736C49.2498 59.6996 51.6246 58.7159 53.3755 56.965C55.1264 55.2141 56.1101 52.8393 56.1101 50.3631V42.9477V41.8175L55.2738 42.5777L55.1894 42.6544C55.1893 42.6545 55.1892 42.6546 55.189 42.6548C54.1484 43.5966 53.3168 44.7459 52.7476 46.0288C52.1784 47.3119 51.8843 48.7 51.8845 50.1037Z" fill="white" stroke="white"/>
<path d="M42.4271 14.7875L9.26986 43.5596C9.26978 43.5597 9.2697 43.5598 9.26963 43.5598C8.1788 44.5053 7.30395 45.6742 6.70434 46.9873C6.10468 48.3005 5.79432 49.7272 5.79428 51.1709L5.79426 52.2664L6.62189 51.5486L52.9381 11.3777L53.9501 10.5H52.6105H14.8365C12.3603 10.5 9.98553 11.4837 8.23459 13.2346C6.48366 14.9855 5.5 17.3603 5.5 19.8365V27.2558V28.3894L6.33714 27.625L6.42482 27.5449C6.42504 27.5447 6.42527 27.5445 6.42549 27.5443C7.46507 26.602 8.29604 25.4527 8.86505 24.1702C9.43417 22.8873 9.72863 21.4996 9.72947 20.0962L9.72947 20.0948C9.72644 18.8115 10.1837 17.5697 11.0182 16.5949C11.8445 15.6295 12.9866 14.9892 14.2405 14.7875H42.4271Z" fill="white" stroke="white"/>
</svg>
